<svg xmlns="http://www.w3.org/2000/svg" viewBox="0 0 48 32" width="48" height="32" aria-hidden="true"><rect width="48" height="32" rx="4" fill="#fff"/><path fill="#003087" d="M18.5 8h-6c-.4 0-.8.3-.9.7l-2.5 16c0 .3.2.5.5.5h3l1.4-9 .2 1.2c.1.4.5.7.9.7h2.2c3.6 0 5.8-1.4 6.5-5.4.3-1.6 0-2.9-.9-3.8-.8-.9-2.1-1.3-3.8-1.3h-.8c-.4 0-.7-.2-.8-.5l-.3-2-.9-5.8c-.1-.4-.5-.7-.9-.7z"/><path fill="#0070E0" d="M35.2 12.5c-.4-1.5-1.6-2.8-3.4-3.4-1.4-.5-3.2-.5-5.2-.5h-4.2c-.4 0-.8.3-.9.7l-2.5 16c0 .3.2.5.5.5h3.6l.7-4.5.2 1.2c.1.5.5.8 1 .8h1.4c2.9 0 5.1-.6 6.5-2.4 1.4-1.8 1.7-4.4.9-7.4.9.2 1.7.5 2.2 1 .9 1 .9 2.4.4 4.2-.5 1.8-1.5 3-2.8 3.6-1 .5-2.2.7-3.4.7h-.7c-.4 0-.7-.3-.8-.6l-.7-4.6-.4-2.6c-.1-.4.2-.8.6-.9.4-.1.8.2.9.6l.4 2.4.7 4.4c.1.4.5.7.9.7h.6c1 0 2-.2 2.8-.6 1.1-.5 1.9-1.5 2.3-2.9.2-.8.3-1.7.2-2.5-.2-1.2-.7-2.2-1.5-2.9-.5.3-1 .5-1.6.6-1.5.3-3.2.2-4.6-.5-1.4-.6-2.4-1.7-2.9-3-.5-1.3-.5-2.7 0-4z"/></svg>
